<svg xmlns="http://www.w3.org/2000/svg" width="1800" height="1030" viewBox="0 0 1800 1030">
<rect width="100%" height="100%" fill="white"/>
<text x="900" y="76" font-family="Arial, sans-serif" font-size="34" font-weight="bold" text-anchor="middle" fill="#172536">SYSTEM ARCHITECTURE</text>
<text x="130" y="143" font-family="Arial, sans-serif" font-size="23" font-weight="bold" text-anchor="start" fill="#172536">OFFLINE RESEARCH</text>
<rect x="120" y="170" width="330" height="255" rx="20" fill="#f5f8fa" stroke="#b4c6d2" stroke-width="2"/>
<rect x="210.0" y="215" width="150" height="95" rx="8" fill="#e0eef5" stroke="#275775" stroke-width="5"/>
<polyline points="190.0,325 380.0,325" fill="none" stroke="#44566a" stroke-width="3"/>
<polyline points="260.0,255 245.0,270 260.0,285" fill="none" stroke="#44566a" stroke-width="3"/>
<polyline points="310.0,255 325.0,270 310.0,285" fill="none" stroke="#44566a" stroke-width="3"/>
<text x="285.0" y="379" font-family="Arial, sans-serif" font-size="31" font-weight="bold" text-anchor="middle" fill="#172536">Training</text>
<text x="285.0" y="411" font-family="Arial, sans-serif" font-size="23" font-weight="normal" text-anchor="middle" fill="#172536">Python · CLIP</text>
<rect x="735" y="170" width="330" height="255" rx="20" fill="#f5f8fa" stroke="#b4c6d2" stroke-width="2"/>
<rect x="838.0" y="203" width="36" height="36" rx="3" fill="#e0eef5" stroke="#275775" stroke-width="5"/>
<rect x="882.0" y="203" width="36" height="36" rx="3" fill="#9cc4d7" stroke="#275775" stroke-width="5"/>
<rect x="926.0" y="203" width="36" height="36" rx="3" fill="#e0eef5" stroke="#275775" stroke-width="5"/>
<rect x="838.0" y="247" width="36" height="36" rx="3" fill="#9cc4d7" stroke="#275775" stroke-width="5"/>
<rect x="882.0" y="247" width="36" height="36" rx="3" fill="#e0eef5" stroke="#275775" stroke-width="5"/>
<rect x="926.0" y="247" width="36" height="36" rx="3" fill="#9cc4d7" stroke="#275775" stroke-width="5"/>
<rect x="838.0" y="291" width="36" height="36" rx="3" fill="#e0eef5" stroke="#275775" stroke-width="5"/>
<rect x="882.0" y="291" width="36" height="36" rx="3" fill="#9cc4d7" stroke="#275775" stroke-width="5"/>
<rect x="926.0" y="291" width="36" height="36" rx="3" fill="#e0eef5" stroke="#275775" stroke-width="5"/>
<text x="900.0" y="379" font-family="Arial, sans-serif" font-size="31" font-weight="bold" text-anchor="middle" fill="#172536">CS-UAP asset</text>
<text x="900.0" y="411" font-family="Arial, sans-serif" font-size="23" font-weight="normal" text-anchor="middle" fill="#172536">Reusable pattern</text>
<rect x="1350" y="170" width="330" height="255" rx="20" fill="#f5f8fa" stroke="#b4c6d2" stroke-width="2"/>
<polyline points="1440.0,205 1440.0,325 1590.0,325" fill="none" stroke="#44566a" stroke-width="3"/>
<rect x="1467.0" y="278" width="28" height="42" rx="2" fill="#9cc4d7" stroke="#275775" stroke-width="5"/>
<rect x="1510.0" y="242" width="28" height="78" rx="2" fill="#9cc4d7" stroke="#275775" stroke-width="5"/>
<rect x="1553.0" y="208" width="28" height="112" rx="2" fill="#9cc4d7" stroke="#275775" stroke-width="5"/>
<text x="1515.0" y="379" font-family="Arial, sans-serif" font-size="31" font-weight="bold" text-anchor="middle" fill="#172536">Evaluation</text>
<text x="1515.0" y="411" font-family="Arial, sans-serif" font-size="23" font-weight="normal" text-anchor="middle" fill="#172536">External models</text>
<text x="130" y="598" font-family="Arial, sans-serif" font-size="23" font-weight="bold" text-anchor="start" fill="#172536">ON-DEVICE APPLICATION</text>
<rect x="120" y="630" width="330" height="255" rx="20" fill="#f5f8fa" stroke="#b4c6d2" stroke-width="2"/>
<rect x="213.0" y="672" width="144" height="106" rx="8" fill="#e0eef5" stroke="#275775" stroke-width="5"/>
<circle cx="323.0" cy="700" r="11" fill="#f5d27b" stroke="#275775" stroke-width="5"/>
<polyline points="225.0,763 265.0,713 295.0,745 315.0,725 346.0,763" fill="none" stroke="#44566a" stroke-width="3"/>
<text x="285.0" y="839" font-family="Arial, sans-serif" font-size="31" font-weight="bold" text-anchor="middle" fill="#172536">User photo</text>
<text x="285.0" y="871" font-family="Arial, sans-serif" font-size="23" font-weight="normal" text-anchor="middle" fill="#172536">Select image + intensity</text>
<rect x="735" y="630" width="330" height="255" rx="20" fill="#f5f8fa" stroke="#b4c6d2" stroke-width="2"/>
<rect x="856.0" y="653" width="88" height="144" rx="12" fill="#e0eef5" stroke="#275775" stroke-width="5"/>
<polyline points="886.0,669 914.0,669" fill="none" stroke="#44566a" stroke-width="3"/>
<circle cx="900.0" cy="780" r="5" fill="#275775" stroke="#275775" stroke-width="5"/>
<polyline points="877.0,740 895.0,715 908.0,730 924.0,705" fill="none" stroke="#44566a" stroke-width="3"/>
<text x="900.0" y="839" font-family="Arial, sans-serif" font-size="31" font-weight="bold" text-anchor="middle" fill="#172536">CLIP SLIP</text>
<text x="900.0" y="871" font-family="Arial, sans-serif" font-size="23" font-weight="normal" text-anchor="middle" fill="#172536">Local processing</text>
<rect x="1350" y="630" width="330" height="255" rx="20" fill="#f5f8fa" stroke="#b4c6d2" stroke-width="2"/>
<rect x="1445.0" y="670" width="65" height="35" rx="8" fill="#9cc4d7" stroke="#275775" stroke-width="5"/>
<rect x="1440.0" y="695" width="150" height="95" rx="8" fill="#e0eef5" stroke="#275775" stroke-width="5"/>
<text x="1515.0" y="839" font-family="Arial, sans-serif" font-size="31" font-weight="bold" text-anchor="middle" fill="#172536">Cloaked PNG</text>
<text x="1515.0" y="871" font-family="Arial, sans-serif" font-size="23" font-weight="normal" text-anchor="middle" fill="#172536">Save or share</text>
<polyline points="450,297.5 735,297.5" fill="none" stroke="#44566a" stroke-width="3"/>
<polygon points="735,297.5 718.7919521576518,305.32937961400216 718.7919521576518,289.67062038599784" fill="#44566a"/>
<text x="592.5" y="278.5" font-family="Arial, sans-serif" font-size="23" font-weight="normal" text-anchor="middle" fill="#172536">learned vector</text>
<polyline points="1065,297.5 1350,297.5" fill="none" stroke="#44566a" stroke-width="3"/>
<polygon points="1350,297.5 1333.7919521576518,305.32937961400216 1333.7919521576518,289.67062038599784" fill="#44566a"/>
<text x="1207.5" y="278.5" font-family="Arial, sans-serif" font-size="23" font-weight="normal" text-anchor="middle" fill="#172536">test artifact</text>
<polyline points="900.0,425 900.0,630" fill="none" stroke="#44566a" stroke-width="3"/>
<polygon points="900.0,630 892.1706203859978,613.7919521576518 907.8293796140022,613.7919521576518" fill="#44566a"/>
<text x="1000" y="533" font-family="Arial, sans-serif" font-size="23" font-weight="normal" text-anchor="middle" fill="#172536">bundle</text>
<polyline points="450,757.5 735,757.5" fill="none" stroke="#44566a" stroke-width="3"/>
<polygon points="735,757.5 718.7919521576518,765.3293796140022 718.7919521576518,749.6706203859978" fill="#44566a"/>
<text x="592.5" y="738.5" font-family="Arial, sans-serif" font-size="23" font-weight="normal" text-anchor="middle" fill="#172536">input</text>
<polyline points="1065,757.5 1350,757.5" fill="none" stroke="#44566a" stroke-width="3"/>
<polygon points="1350,757.5 1333.7919521576518,765.3293796140022 1333.7919521576518,749.6706203859978" fill="#44566a"/>
<text x="1207.5" y="738.5" font-family="Arial, sans-serif" font-size="23" font-weight="normal" text-anchor="middle" fill="#172536">output</text>
<text x="900" y="987" font-family="Arial, sans-serif" font-size="27" font-weight="normal" text-anchor="middle" fill="#172536">Offline training → bundled asset → local image processing</text>
</svg>