<svg xmlns="http://www.w3.org/2000/svg" width="1800" height="1250" viewBox="0 0 1800 1250">
<rect width="100%" height="100%" fill="white"/>
<text x="900" y="76" font-family="Arial, sans-serif" font-size="34" font-weight="bold" text-anchor="middle" fill="#172536">GENERATION AND EXPORT SEQUENCE</text>
<rect x="5" y="110" width="270" height="110" rx="12" fill="#f7f7f7" stroke="#44566a" stroke-width="3"/>
<text x="140.0" y="156" font-family="Arial, sans-serif" font-size="28" font-weight="bold" text-anchor="middle" fill="#172536">User</text>
<polyline points="140,220 140,1130" fill="none" stroke="#44566a" stroke-width="3" stroke-dasharray="10 7"/>
<rect x="405" y="110" width="270" height="110" rx="12" fill="#f7f7f7" stroke="#44566a" stroke-width="3"/>
<text x="540.0" y="156" font-family="Arial, sans-serif" font-size="28" font-weight="bold" text-anchor="middle" fill="#172536">Lab state</text>
<polyline points="540,220 540,1130" fill="none" stroke="#44566a" stroke-width="3" stroke-dasharray="10 7"/>
<rect x="865" y="110" width="270" height="110" rx="12" fill="#f7f7f7" stroke="#44566a" stroke-width="3"/>
<text x="1000.0" y="156" font-family="Arial, sans-serif" font-size="28" font-weight="bold" text-anchor="middle" fill="#172536">Processing</text>
<polyline points="1000,220 1000,1130" fill="none" stroke="#44566a" stroke-width="3" stroke-dasharray="10 7"/>
<rect x="1375" y="110" width="270" height="110" rx="12" fill="#f7f7f7" stroke="#44566a" stroke-width="3"/>
<text x="1510.0" y="156" font-family="Arial, sans-serif" font-size="28" font-weight="bold" text-anchor="middle" fill="#172536">Platform services</text>
<polyline points="1510,220 1510,1130" fill="none" stroke="#44566a" stroke-width="3" stroke-dasharray="10 7"/>
<polyline points="140,290 540,290" fill="none" stroke="#44566a" stroke-width="3"/>
<polygon points="540,290 523.7919521576518,297.82937961400216 523.7919521576518,282.17062038599784" fill="#44566a"/>
<text x="340.0" y="271" font-family="Arial, sans-serif" font-size="24" font-weight="normal" text-anchor="middle" fill="#172536">Apply cloak</text>
<polyline points="540,410 1000,410" fill="none" stroke="#44566a" stroke-width="3"/>
<polygon points="1000,410 983.7919521576518,417.82937961400216 983.7919521576518,402.17062038599784" fill="#44566a"/>
<text x="770.0" y="391" font-family="Arial, sans-serif" font-size="24" font-weight="normal" text-anchor="middle" fill="#172536">compute(preparePhoto)</text>
<polyline points="1000,500 540,500" fill="none" stroke="#44566a" stroke-width="3" stroke-dasharray="10 7"/>
<polygon points="540,500 556.2080478423482,492.17062038599784 556.2080478423482,507.82937961400216" fill="#44566a"/>
<text x="770.0" y="481" font-family="Arial, sans-serif" font-size="24" font-weight="normal" text-anchor="middle" fill="#172536">Normalized baseline</text>
<polyline points="540,610 1000,610" fill="none" stroke="#44566a" stroke-width="3"/>
<polygon points="1000,610 983.7919521576518,617.8293796140022 983.7919521576518,602.1706203859978" fill="#44566a"/>
<text x="770.0" y="591" font-family="Arial, sans-serif" font-size="24" font-weight="normal" text-anchor="middle" fill="#172536">compute(cloakPhoto)</text>
<polyline points="1000,700 540,700" fill="none" stroke="#44566a" stroke-width="3" stroke-dasharray="10 7"/>
<polygon points="540,700 556.2080478423482,692.1706203859978 556.2080478423482,707.8293796140022" fill="#44566a"/>
<text x="770.0" y="681" font-family="Arial, sans-serif" font-size="24" font-weight="normal" text-anchor="middle" fill="#172536">Generated PNG</text>
<polyline points="540,810 1000,810" fill="none" stroke="#44566a" stroke-width="3"/>
<polygon points="1000,810 983.7919521576518,817.8293796140022 983.7919521576518,802.1706203859978" fill="#44566a"/>
<text x="770.0" y="791" font-family="Arial, sans-serif" font-size="24" font-weight="normal" text-anchor="middle" fill="#172536">compute(inspectPhoto)</text>
<polyline points="1000,900 540,900" fill="none" stroke="#44566a" stroke-width="3" stroke-dasharray="10 7"/>
<polygon points="540,900 556.2080478423482,892.1706203859978 556.2080478423482,907.8293796140022" fill="#44566a"/>
<text x="770.0" y="881" font-family="Arial, sans-serif" font-size="24" font-weight="normal" text-anchor="middle" fill="#172536">LabResult + metrics</text>
<polyline points="140,1000 540,1000" fill="none" stroke="#44566a" stroke-width="3"/>
<polygon points="540,1000 523.7919521576518,1007.8293796140022 523.7919521576518,992.1706203859978" fill="#44566a"/>
<text x="340.0" y="981" font-family="Arial, sans-serif" font-size="24" font-weight="normal" text-anchor="middle" fill="#172536">Save / share</text>
<polyline points="540,1090 1510,1090" fill="none" stroke="#44566a" stroke-width="3"/>
<polygon points="1510,1090 1493.7919521576518,1097.8293796140022 1493.7919521576518,1082.1706203859978" fill="#44566a"/>
<text x="1025.0" y="1071" font-family="Arial, sans-serif" font-size="24" font-weight="normal" text-anchor="middle" fill="#172536">PNG to selected platform action</text>
<text x="900" y="1203" font-family="Arial, sans-serif" font-size="23" font-weight="normal" text-anchor="middle" fill="#172536">Success path after image selection and vector loading; errors return to the interface.</text>
</svg>