<svg xmlns="http://www.w3.org/2000/svg" viewBox="0 0 192 192" role="img" aria-label="invisiAI" shape-rendering="crispEdges"><rect width="192" height="192" fill="#CBE4D7"/><path d="M24 24h144v144H24z" fill="#F5F6F3" stroke="#303831" stroke-width="8"/><path d="M32 160h128v-8H32z" fill="#F3D99B"/><rect x="61" y="61" width="10" height="10" fill="#303831"/><rect x="101" y="61" width="10" height="10" fill="#303831"/><rect x="111" y="61" width="10" height="10" fill="#303831"/><rect x="121" y="61" width="10" height="10" fill="#303831"/><rect x="91" y="71" width="10" height="10" fill="#303831"/><rect x="131" y="71" width="10" height="10" fill="#303831"/><rect x="51" y="81" width="10" height="10" fill="#303831"/><rect x="61" y="81" width="10" height="10" fill="#303831"/><rect x="91" y="81" width="10" height="10" fill="#303831"/><rect x="131" y="81" width="10" height="10" fill="#303831"/><rect x="61" y="91" width="10" height="10" fill="#303831"/><rect x="91" y="91" width="10" height="10" fill="#303831"/><rect x="101" y="91" width="10" height="10" fill="#303831"/><rect x="111" y="91" width="10" height="10" fill="#303831"/><rect x="121" y="91" width="10" height="10" fill="#303831"/><rect x="131" y="91" width="10" height="10" fill="#303831"/><rect x="61" y="101" width="10" height="10" fill="#303831"/><rect x="91" y="101" width="10" height="10" fill="#303831"/><rect x="131" y="101" width="10" height="10" fill="#303831"/><rect x="61" y="111" width="10" height="10" fill="#303831"/><rect x="91" y="111" width="10" height="10" fill="#303831"/><rect x="131" y="111" width="10" height="10" fill="#303831"/><rect x="51" y="121" width="10" height="10" fill="#303831"/><rect x="61" y="121" width="10" height="10" fill="#303831"/><rect x="71" y="121" width="10" height="10" fill="#303831"/><rect x="91" y="121" width="10" height="10" fill="#303831"/><rect x="131" y="121" width="10" height="10" fill="#303831"/></svg>
